<svg width="768" height="1024" viewBox="0 0 768 1024" fill="none" xmlns="http://www.w3.org/2000/svg">
  <defs>
    <linearGradient id="bg" x1="0" y1="0" x2="1" y2="1">
      <stop offset="0%" stop-color="#1452ff"/>
      <stop offset="100%" stop-color="#18d6ff"/>
    </linearGradient>
  </defs>
  <rect width="768" height="1024" rx="42" fill="url(#bg)"/>
  <g opacity="0.28" fill="#ffffff">
    <rect x="60" y="120" width="180" height="180" rx="18" transform="rotate(-8 60 120)"/>
    <rect x="280" y="90" width="180" height="180" rx="18" transform="rotate(-8 280 90)"/>
    <rect x="500" y="60" width="180" height="180" rx="18" transform="rotate(-8 500 60)"/>
    <rect x="90" y="360" width="180" height="180" rx="18" transform="rotate(-8 90 360)"/>
    <rect x="310" y="330" width="180" height="180" rx="18" transform="rotate(-8 310 330)"/>
    <rect x="530" y="300" width="180" height="180" rx="18" transform="rotate(-8 530 300)"/>
  </g>
  <text x="384" y="770" text-anchor="middle" fill="white" font-size="120" font-family="Arial, sans-serif" font-weight="900">KENO</text>
  <text x="384" y="845" text-anchor="middle" fill="#d9f8ff" font-size="42" font-family="Arial, sans-serif" letter-spacing="7">MIZRAHI ORIGINALS</text>
</svg>
